<svg xmlns="http://www.w3.org/2000/svg" viewBox="0 0 24 24">
  <path fill-rule="evenodd" clip-rule="evenodd" d="M21 6a15.6 15.6 0 01-.2 2.4C21.6 10 22 12 22 14c0 2.5-1.2 4.5-3 5.9a11.6 11.6 0 01-7 2.1c-2.7 0-5.1-.7-7-2.1A7.2 7.2 0 012 14c0-2 .4-4 1.2-5.6V8a15 15 0 010-4c0-.3.1-.6.5-.8.3-.2.7-.1 1 0 1.3.3 2.4.8 3.5 1.4C9.3 4.2 10.6 4 12 4s2.7.2 3.8.5c1.1-.6 2.3-1 3.5-1.4.3-.1.7-.2 1 0 .4.2.5.5.5.8l.2 2zm-1 8c0-1.7-.4-4-2.5-4-1 0-1.9.3-2.8.5-.9.3-1.8.5-2.7.5-1 0-1.8-.3-2.7-.5-1-.3-1.8-.5-2.8-.5C4.4 10 4 12.3 4 14c0 1.8.8 3.2 2.2 4.3 1.5 1 3.5 1.7 5.8 1.7s4.3-.6 5.8-1.7c1.4-1 2.2-2.5 2.2-4.3zm-10 .5c0 1.4-.7 2.5-1.5 2.5S7 15.9 7 14.5 7.7 12 8.5 12s1.5 1.1 1.5 2.5zm5.5 2.5c.8 0 1.5-1.1 1.5-2.5s-.7-2.5-1.5-2.5-1.5 1.1-1.5 2.5.7 2.5 1.5 2.5z"/>
</svg>
