<svg xmlns="http://www.w3.org/2000/svg" viewBox="0 0 24 24">
  <path fill-rule="evenodd" clip-rule="evenodd" d="M14.8 5.7a3 3 0 00-3 3.7 1 1 0 01-1 1.1c-2.2-.2-4.3-1.1-6-2.5.1.6.3 1.2.8 2l.7 1-1.2.4H5l.6.6.9.7 1.6 1-1.7.8h-.2l1.1.8 1.4.7-1.1 1c-.7.5-1.3 1-2.1 1.1 1.2.7 2.7 1 4.1 1 4.8 0 8.7-3.8 8.7-8.5v-.5l.4-.3c.7-.5 1.1-1 1.5-1.8h-2.2l-.3-.6A3 3 0 0015 5.7zM3.6 13a1 1 0 00-.3.8c.1.8.6 1.4 1.2 2l.4.4H2.5a1 1 0 00-.8 1.7 10.7 10.7 0 0018.4-6.8c1.3-1 1.9-2.5 2.2-3.9a1 1 0 00-1-1.2h-2.3a5 5 0 00-9.3 2.3 9.2 9.2 0 01-4.7-3 1 1 0 00-1.7.3 5.3 5.3 0 000 4.4H3a1 1 0 00-.6 1.3c.2.6.6 1.2 1 1.7z"/>
</svg>
