<svg width="24" height="24" viewBox="0 0 24 24" xmlns="http://www.w3.org/2000/svg">
<path fill-rule="evenodd" clip-rule="evenodd" d="M14.8492 5.65787C14.3924 5.65768 13.9412 5.75892 13.5283 5.95429C13.1153 6.14965 12.7509 6.43427 12.4613 6.78759C12.1717 7.14091 11.9641 7.55412 11.8536 7.99739C11.7431 8.44067 11.7324 8.90295 11.8222 9.35087C11.8532 9.50607 11.8468 9.66639 11.8038 9.81866C11.7607 9.97094 11.6821 10.1108 11.5744 10.2268C11.4667 10.3428 11.333 10.4315 11.1844 10.4858C11.0357 10.54 10.8763 10.5582 10.7192 10.5389C8.56897 10.2747 6.54197 9.39082 4.88524 7.99487C4.91624 8.59687 5.12524 9.23687 5.57824 9.90687L6.25724 10.9109L5.14224 11.3859L4.92724 11.4779C5.08724 11.6609 5.27924 11.8479 5.49424 12.0329C5.78166 12.2789 6.08571 12.5047 6.40424 12.7089L6.41524 12.7159H6.41624L7.96424 13.6549L6.34424 14.4649C6.26424 14.5049 6.18424 14.5409 6.10424 14.5729C6.45258 14.8623 6.83633 15.1063 7.24624 15.2989L8.63624 15.9559L7.47224 16.9599C6.83724 17.5079 6.19824 17.9169 5.36924 18.1329C6.64068 18.8101 8.05969 19.1629 9.50024 19.1599C14.3062 19.1599 18.1762 15.3249 18.1762 10.6259V10.1059L18.6012 9.80687C19.2652 9.34087 19.7342 8.71087 20.0702 7.98987H17.9102L17.6382 7.41987C17.3878 6.89254 16.9929 6.44707 16.4994 6.13518C16.0059 5.82329 15.434 5.65778 14.8502 5.65787H14.8492ZM3.56924 12.9579C3.47488 13.0659 3.40487 13.193 3.36398 13.3306C3.32309 13.4681 3.31226 13.6128 3.33224 13.7549C3.44524 14.5559 3.92424 15.2459 4.45424 15.7729C4.59824 15.9159 4.75224 16.0529 4.91424 16.1839L4.83924 16.2039C4.35824 16.3239 3.70924 16.3489 2.62824 16.2439C2.4241 16.2238 2.21874 16.2671 2.04 16.3677C1.86126 16.4683 1.71778 16.6215 1.62903 16.8064C1.54028 16.9913 1.51054 17.1991 1.54385 17.4015C1.57716 17.6039 1.67191 17.7911 1.81524 17.9379C2.81602 18.9608 4.01154 19.7729 5.33126 20.3263C6.65099 20.8797 8.06819 21.1631 9.49924 21.1599C15.2122 21.1599 19.8982 16.7239 20.1632 11.1259C21.4532 10.0429 22.0982 8.57587 22.4462 7.24287C22.4849 7.09492 22.4892 6.94007 22.4586 6.79022C22.4281 6.64038 22.3636 6.49953 22.2701 6.37851C22.1766 6.25749 22.0566 6.15953 21.9194 6.09216C21.7821 6.02478 21.6312 5.98979 21.4782 5.98987H19.1252C18.5497 5.09619 17.7086 4.40531 16.7201 4.0143C15.7317 3.6233 14.6456 3.55182 13.6144 3.80991C12.5832 4.06801 11.6588 4.64271 10.9711 5.45325C10.2834 6.26379 9.86695 7.26943 9.78024 8.32887C7.9369 7.84902 6.28758 6.80967 5.05924 5.35387C4.95046 5.22525 4.81095 5.1262 4.65366 5.0659C4.49637 5.0056 4.3264 4.98602 4.15952 5.00896C3.99263 5.0319 3.83425 5.09663 3.69907 5.19713C3.56388 5.29764 3.45628 5.43067 3.38624 5.58387C2.78024 6.90587 2.66424 8.42987 3.34024 9.97987L3.10624 10.0799C2.88232 10.1753 2.70088 10.3491 2.59595 10.5687C2.49101 10.7884 2.46978 11.0387 2.53624 11.2729C2.72224 11.9249 3.14024 12.5009 3.56824 12.9579H3.56924Z" />
</svg>
