<svg width="424" height="429" viewBox="0 0 424 429" fill="none" xmlns="http://www.w3.org/2000/svg">
<path d="M233.192 3.18065L233.195 3.18037C270.201 -0.999012 309.881 1.9283 343.267 12.0365C376.67 22.1495 403.68 39.4194 415.5 63.8501C427.322 88.287 424.016 119.943 414.17 153.492C405.288 183.755 391.116 215.454 378.076 244.621C376.668 247.771 375.273 250.892 373.899 253.978C372.217 257.736 370.567 261.438 368.941 265.085C343.311 322.576 323.865 366.197 285.506 394.764C244.371 424.813 181.816 437.837 125.966 418.138C70.1045 398.434 20.9194 346.323 6.20108 285.208C-8.51578 224.1 10.8805 153.928 52.733 100.779C94.5769 47.6407 158.856 11.2038 233.192 3.18065Z" stroke="#2E2E31"/>
</svg>
